<svg width="378" height="100" viewBox="0 0 378 100" fill="none" xmlns="http://www.w3.org/2000/svg">
<g clip-path="url(#clip0_275_430)">
<rect width="378" height="100" rx="28" fill="black"/>
<path d="M62.79 41.83H76.56L77.82 40.15C78 39.93 78.14 39.82 78.24 39.82C78.34 39.82 78.77 40.09 79.53 40.63C80.31 41.17 80.85 41.57 81.15 41.83C81.47 42.09 81.63 42.31 81.63 42.49C81.63 42.67 81.42 42.76 81 42.76H62.07C60.09 45.14 57.91 47.25 55.53 49.09L55.08 48.64C56.78 46.64 58.13 44.83 59.13 43.21C60.15 41.59 61.16 39.6 62.16 37.24C62.94 37.54 63.59 37.83 64.11 38.11C64.65 38.39 65.02 38.61 65.22 38.77C65.42 38.91 65.52 39.05 65.52 39.19C65.52 39.31 65.38 39.4 65.1 39.46C64.82 39.52 64.59 39.64 64.41 39.82C64.23 39.98 64 40.25 63.72 40.63C63.44 41.01 63.13 41.41 62.79 41.83ZM76.59 52.78H78L79.29 51.16C79.47 50.92 79.65 50.8 79.83 50.8C80.03 50.8 80.55 51.21 81.39 52.03C82.23 52.85 82.65 53.35 82.65 53.53C82.65 53.69 82.49 53.77 82.17 53.77H76.56C76.5 56.39 76.44 58.42 76.38 59.86H77.82L78.84 58.3C79.02 58.02 79.23 57.88 79.47 57.88C79.73 57.88 80.06 58.08 80.46 58.48L81.66 59.71C82.08 60.13 82.29 60.44 82.29 60.64C82.29 60.82 81.98 60.91 81.36 60.91H76.32C76.32 62.19 76.2 63.19 75.96 63.91C75.72 64.65 75.01 65.31 73.83 65.89C72.65 66.47 71.92 66.76 71.64 66.76C71.44 66.76 71.3 66.52 71.22 66.04C71.14 65.48 70.81 64.99 70.23 64.57C69.65 64.15 68.57 63.67 66.99 63.13L67.17 62.53C69.39 62.91 70.88 63.1 71.64 63.1C72.42 63.1 72.92 62.94 73.14 62.62C73.36 62.32 73.47 61.75 73.47 60.91H61.83L61.14 62.11C61.02 62.29 60.88 62.38 60.72 62.38C60.58 62.38 60.22 62.24 59.64 61.96C59.08 61.68 58.42 61.28 57.66 60.76C58.24 60.32 58.61 59.99 58.77 59.77C58.95 59.55 59.07 59.25 59.13 58.87L60 53.77H56.76C56.26 53.77 55.83 53.82 55.47 53.92L54.96 52.63C55.38 52.73 55.88 52.78 56.46 52.78H60.18L61.11 47.5C61.25 46.64 61.37 45.74 61.47 44.8C62.55 45.12 63.56 45.58 64.5 46.18H73.74L74.61 44.8C74.69 44.66 74.78 44.59 74.88 44.59C75.06 44.59 75.52 44.84 76.26 45.34C77.02 45.84 77.49 46.17 77.67 46.33C77.87 46.47 77.97 46.63 77.97 46.81C77.97 46.97 77.53 47.25 76.65 47.65C76.65 48.79 76.63 50.5 76.59 52.78ZM62.94 52.78H73.86C73.92 51 73.95 49.11 73.95 47.11H63.96L62.94 52.78ZM66.36 47.29C67.6 47.79 68.57 48.27 69.27 48.73C69.99 49.19 70.35 49.67 70.35 50.17C70.35 50.67 70.2 51.14 69.9 51.58C69.62 52.02 69.27 52.24 68.85 52.24C68.53 52.24 68.28 51.96 68.1 51.4C67.8 50.4 67.54 49.72 67.32 49.36C67.1 48.98 66.68 48.45 66.06 47.77L66.36 47.29ZM73.83 53.77H62.76L61.65 59.86H73.53C73.65 57.8 73.75 55.77 73.83 53.77ZM66.42 53.86C67.58 54.42 68.53 54.97 69.27 55.51C70.01 56.03 70.38 56.62 70.38 57.28C70.38 57.92 70.21 58.41 69.87 58.75C69.55 59.09 69.23 59.26 68.91 59.26C68.59 59.26 68.38 59.19 68.28 59.05C68.2 58.91 68.08 58.51 67.92 57.85C67.76 57.17 67.54 56.56 67.26 56.02C66.98 55.46 66.6 54.89 66.12 54.31L66.42 53.86ZM93.93 40.99H105L105.63 39.79C105.77 39.49 105.92 39.34 106.08 39.34C106.26 39.34 106.73 39.58 107.49 40.06C108.27 40.52 108.76 40.83 108.96 40.99C109.18 41.15 109.29 41.32 109.29 41.5C109.29 41.68 108.86 42.02 108 42.52V61.03L108.06 63.73C108.06 63.97 108.03 64.12 107.97 64.18C107.93 64.24 107.72 64.37 107.34 64.57C106.98 64.77 106.58 64.94 106.14 65.08C105.7 65.24 105.42 65.32 105.3 65.32C105.2 65.32 105.15 65.2 105.15 64.96V60.94H93.39V64.24C93.39 64.48 93.3 64.66 93.12 64.78C92.96 64.9 92.55 65.1 91.89 65.38C91.25 65.68 90.87 65.83 90.75 65.83C90.63 65.83 90.58 65.73 90.6 65.53C90.7 64.55 90.75 63.55 90.75 62.53V41.8C90.75 40.96 90.72 40.11 90.66 39.25C91.92 39.81 93.01 40.39 93.93 40.99ZM105.15 50.32V41.86H93.39V50.32H105.15ZM105.15 59.83V51.25H93.39V59.83H105.15ZM122.67 54.43V55.48C122.67 55.72 122.58 55.9 122.4 56.02C122.24 56.14 121.82 56.31 121.14 56.53C120.48 56.73 120.06 56.83 119.88 56.83C119.78 56.83 119.75 56.72 119.79 56.5C119.91 55.86 119.97 54.86 119.97 53.5V45.82C119.97 44.66 119.94 43.81 119.88 43.27C121.26 43.75 122.39 44.24 123.27 44.74H128.1C128.1 43.02 128.09 41.81 128.07 41.11H117.87C117.37 41.11 116.97 41.18 116.67 41.32L115.92 40.09C116.34 40.19 116.86 40.24 117.48 40.24H137.25L138.78 38.23C138.88 38.07 138.99 37.99 139.11 37.99C139.23 37.99 139.47 38.13 139.83 38.41C140.21 38.67 140.68 39.03 141.24 39.49C141.82 39.95 142.19 40.26 142.35 40.42C142.51 40.58 142.59 40.74 142.59 40.9C142.59 41.04 142.44 41.11 142.14 41.11H130.59C130.59 42.77 130.58 43.98 130.56 44.74H135L135.87 43.48C135.99 43.3 136.11 43.21 136.23 43.21C136.37 43.21 136.81 43.45 137.55 43.93C138.29 44.41 138.78 44.74 139.02 44.92C139.28 45.08 139.41 45.24 139.41 45.4C139.41 45.56 138.97 45.8 138.09 46.12V52.21C138.09 53.09 138.1 53.73 138.12 54.13L138.18 55.12C138.18 55.2 138.16 55.26 138.12 55.3C138.08 55.34 137.92 55.42 137.64 55.54C137.38 55.66 137.03 55.76 136.59 55.84C136.15 55.92 135.82 55.96 135.6 55.96C135.4 55.96 135.3 55.89 135.3 55.75V54.43H130.26C130.04 56.65 129.5 58.44 128.64 59.8C130.6 60.8 132.67 61.49 134.85 61.87C137.03 62.25 139.79 62.42 143.13 62.38L143.07 62.89C142.05 63.01 141.24 63.23 140.64 63.55C140.04 63.87 139.63 64.35 139.41 64.99C139.35 65.19 139.24 65.29 139.08 65.29C138.88 65.29 137.92 65.09 136.2 64.69C134.48 64.29 132.93 63.82 131.55 63.28C130.17 62.74 128.83 62.05 127.53 61.21C125.51 63.41 121.58 64.85 115.74 65.53L115.62 65.08C120.84 63.58 124.23 61.87 125.79 59.95C124.95 59.25 123.97 57.89 122.85 55.87L123.27 55.57C124.39 56.77 125.52 57.79 126.66 58.63C127.26 57.51 127.64 56.11 127.8 54.43H122.67ZM135.3 49.06V45.7H130.56C130.56 46.48 130.54 47.6 130.5 49.06H135.3ZM122.67 45.7V49.06H128.04L128.1 45.7H122.67ZM135.3 53.47V50.08H130.47C130.47 51.26 130.43 52.39 130.35 53.47H135.3ZM122.67 50.08V53.47H127.89C127.93 52.87 127.97 51.74 128.01 50.08H122.67ZM152.22 42.1C152 41.88 151.84 41.46 151.74 40.84C151.64 40.2 151.45 39.65 151.17 39.19C150.91 38.71 150.57 38.22 150.15 37.72L150.45 37.33C151.67 37.77 152.62 38.28 153.3 38.86C154 39.44 154.35 39.94 154.35 40.36C154.35 40.9 154.06 41.48 153.48 42.1H155.46L156.45 40.69C156.61 40.47 156.75 40.36 156.87 40.36C157.01 40.36 157.22 40.46 157.5 40.66C157.78 40.86 158.15 41.16 158.61 41.56C159.07 41.96 159.35 42.23 159.45 42.37C159.57 42.51 159.63 42.63 159.63 42.73C159.63 42.93 159.42 43.03 159 43.03H147.78C147.24 43.03 146.82 43.1 146.52 43.24L145.98 41.95C146.4 42.05 146.9 42.1 147.48 42.1H152.22ZM163.83 42.01C165.27 41.51 167.36 40.41 170.1 38.71C171.56 40.55 172.29 41.6 172.29 41.86C172.29 41.98 172.22 42.04 172.08 42.04C171.96 42.04 171.77 41.99 171.51 41.89C171.25 41.79 170.99 41.74 170.73 41.74C170.49 41.74 169.52 41.92 167.82 42.28C166.14 42.64 164.78 42.86 163.74 42.94L163.53 48.76H168.63L169.98 47.08C170.16 46.86 170.3 46.75 170.4 46.75C170.56 46.75 171.08 47.17 171.96 48.01C172.84 48.85 173.28 49.39 173.28 49.63C173.28 49.77 173.08 49.84 172.68 49.84H168.87V61.84C168.87 62.82 168.88 63.5 168.9 63.88L168.93 64.96C168.93 65.12 168.85 65.25 168.69 65.35C168.55 65.47 168.2 65.63 167.64 65.83C167.08 66.05 166.72 66.16 166.56 66.16C166.42 66.16 166.35 66.03 166.35 65.77V49.84H163.47C163.33 53.06 163.18 55.2 163.02 56.26C162.88 57.3 162.62 58.3 162.24 59.26C161.86 60.22 161.27 61.19 160.47 62.17C159.69 63.15 158.51 64.35 156.93 65.77L156.33 65.26C157.55 63.96 158.46 62.77 159.06 61.69C159.68 60.61 160.13 59.38 160.41 58C160.69 56.6 160.87 55.09 160.95 53.47C161.05 51.85 161.1 49.71 161.1 47.05C161.1 44.39 161.08 42.28 161.04 40.72C161.98 41.06 162.91 41.49 163.83 42.01ZM153.24 49C154 46.76 154.52 44.83 154.8 43.21C156.2 43.85 157.03 44.25 157.29 44.41C157.57 44.57 157.71 44.7 157.71 44.8C157.71 44.9 157.54 44.98 157.2 45.04C156.88 45.1 156.62 45.32 156.42 45.7C156.22 46.06 155.51 47.16 154.29 49H156.27L157.5 47.59C157.68 47.39 157.84 47.29 157.98 47.29C158.14 47.29 158.61 47.65 159.39 48.37C160.19 49.07 160.59 49.51 160.59 49.69C160.59 49.85 160.36 49.93 159.9 49.93H153.9V53.53H155.58L156.45 52.12C156.59 51.88 156.72 51.76 156.84 51.76C156.98 51.76 157.29 51.94 157.77 52.3C158.27 52.64 158.7 52.98 159.06 53.32C159.44 53.64 159.63 53.88 159.63 54.04C159.63 54.32 159.38 54.46 158.88 54.46H153.9V61.24C153.9 62.4 153.82 63.2 153.66 63.64C153.5 64.08 153.06 64.5 152.34 64.9C151.64 65.32 151.18 65.53 150.96 65.53C150.76 65.53 150.61 65.37 150.51 65.05C150.35 64.45 150.12 64.02 149.82 63.76C149.54 63.5 148.89 63.14 147.87 62.68V62.14C149.31 62.4 150.24 62.53 150.66 62.53C151.08 62.53 151.34 62.45 151.44 62.29C151.54 62.13 151.59 61.82 151.59 61.36V54.46H147.69C147.15 54.46 146.73 54.53 146.43 54.67L145.89 53.38C146.31 53.48 146.81 53.53 147.39 53.53H151.59V49.93H147.27C146.73 49.93 146.31 50 146.01 50.14L145.47 48.85C145.89 48.95 146.39 49 146.97 49H153.24ZM148.56 43.39C149.74 44.21 150.53 44.84 150.93 45.28C151.33 45.7 151.53 46.13 151.53 46.57C151.53 47.01 151.39 47.48 151.11 47.98C150.83 48.48 150.57 48.73 150.33 48.73C150.11 48.73 149.96 48.66 149.88 48.52C149.8 48.38 149.7 47.98 149.58 47.32C149.48 46.66 149.33 46.07 149.13 45.55C148.93 45.03 148.59 44.43 148.11 43.75L148.56 43.39ZM148.29 55.09C148.87 55.41 149.43 55.74 149.97 56.08C150.51 56.4 150.8 56.59 150.84 56.65C150.9 56.71 150.93 56.77 150.93 56.83C150.93 57.01 150.76 57.13 150.42 57.19C150.24 57.23 150.09 57.31 149.97 57.43C149.85 57.53 149.69 57.76 149.49 58.12C148.53 59.88 147.03 61.76 144.99 63.76L144.51 63.37C146.21 60.77 147.47 58.01 148.29 55.09ZM154.8 55.33C155.88 55.97 156.82 56.61 157.62 57.25C158.42 57.87 158.82 58.42 158.82 58.9C158.82 59.38 158.64 59.89 158.28 60.43C157.94 60.97 157.63 61.24 157.35 61.24C157.09 61.24 156.89 60.96 156.75 60.4C156.29 58.62 155.51 57.08 154.41 55.78L154.8 55.33ZM178.59 65.02C179.73 64.08 180.45 63.28 180.75 62.62C181.05 61.96 181.2 61.52 181.2 61.3C181.2 61.08 181.09 60.95 180.87 60.91C180.31 60.81 179.84 60.53 179.46 60.07C179.1 59.61 178.92 59.06 178.92 58.42C178.92 57.78 179.16 57.22 179.64 56.74C180.14 56.24 180.75 55.99 181.47 55.99C182.21 55.99 182.84 56.32 183.36 56.98C183.88 57.64 184.14 58.51 184.14 59.59C184.14 60.65 183.74 61.78 182.94 62.98C182.14 64.2 181.01 65.21 179.55 66.01L178.59 65.02ZM217.05 37.93C218.47 38.95 219.53 39.86 220.23 40.66C220.93 41.44 221.28 42.22 221.28 43C221.28 43.44 221.05 43.95 220.59 44.53C220.15 45.09 219.75 45.37 219.39 45.37C219.05 45.37 218.82 45.02 218.7 44.32C218.48 42.8 218.21 41.61 217.89 40.75C217.57 39.89 217.13 39.09 216.57 38.35L217.05 37.93ZM222.36 45.76C223.42 43.84 224.46 41.32 225.48 38.2C226.14 38.52 226.78 38.89 227.4 39.31C228.04 39.71 228.44 39.98 228.6 40.12C228.76 40.24 228.84 40.36 228.84 40.48C228.84 40.58 228.7 40.65 228.42 40.69C228.14 40.71 227.9 40.8 227.7 40.96C227.52 41.1 227.08 41.58 226.38 42.4C225.68 43.2 224.75 44.32 223.59 45.76H228.48L229.29 44.68C229.43 44.48 229.57 44.38 229.71 44.38C229.85 44.38 230.1 44.52 230.46 44.8C230.84 45.06 231.23 45.37 231.63 45.73C232.05 46.09 232.34 46.36 232.5 46.54C232.66 46.72 232.74 46.88 232.74 47.02C232.74 47.16 232.68 47.28 232.56 47.38C232.46 47.48 232.32 47.54 232.14 47.56C231.98 47.56 231.82 47.56 231.66 47.56C231.22 47.56 230.68 47.76 230.04 48.16C229.4 48.54 228.38 49.31 226.98 50.47L226.56 50.11C227.54 48.71 228.27 47.55 228.75 46.63H209.76C209.76 49.63 208.93 51.13 207.27 51.13C206.77 51.13 206.4 51.02 206.16 50.8C205.94 50.58 205.83 50.32 205.83 50.02C205.83 49.72 206.08 49.31 206.58 48.79C207.36 48.01 207.9 47.32 208.2 46.72C208.5 46.12 208.73 45.24 208.89 44.08H209.55C209.63 44.68 209.69 45.24 209.73 45.76H222.36ZM210.06 38.83C211.56 39.65 212.65 40.31 213.33 40.81C214.01 41.31 214.45 41.73 214.65 42.07C214.85 42.41 214.95 42.81 214.95 43.27C214.95 43.73 214.78 44.19 214.44 44.65C214.1 45.09 213.75 45.31 213.39 45.31C213.03 45.31 212.75 45.02 212.55 44.44C212.11 43.14 211.74 42.24 211.44 41.74C211.14 41.22 210.55 40.45 209.67 39.43L210.06 38.83ZM220.86 56.89V61.96C220.86 63.08 220.77 63.85 220.59 64.27C220.43 64.71 220.17 65.07 219.81 65.35C219.45 65.63 218.91 65.9 218.19 66.16C217.47 66.44 217.01 66.58 216.81 66.58C216.63 66.58 216.51 66.44 216.45 66.16C216.33 65.66 216.17 65.26 215.97 64.96C215.79 64.66 215.45 64.38 214.95 64.12C214.45 63.86 213.71 63.58 212.73 63.28V62.59C214.51 62.91 215.71 63.07 216.33 63.07C216.97 63.07 217.42 62.98 217.68 62.8C217.94 62.64 218.07 62.25 218.07 61.63V56.89H207.81C207.27 56.89 206.85 56.96 206.55 57.1L206.01 55.87C206.43 55.97 206.93 56.02 207.51 56.02H218.07C218.07 54.8 218.03 53.81 217.95 53.05C218.69 53.21 219.39 53.41 220.05 53.65C221.45 52.49 222.38 51.57 222.84 50.89H212.31C211.77 50.89 211.35 50.96 211.05 51.1L210.51 49.81C210.93 49.91 211.43 49.96 212.01 49.96H223.26L224.34 49.03C224.46 48.91 224.57 48.85 224.67 48.85C224.85 48.85 225.42 49.24 226.38 50.02C227.34 50.8 227.82 51.33 227.82 51.61C227.82 51.87 227.52 51.96 226.92 51.88C226.72 51.86 226.54 51.85 226.38 51.85C225.94 51.85 225.35 52 224.61 52.3C223.89 52.6 222.64 53.21 220.86 54.13V56.02H227.79L229.32 53.92C229.52 53.64 229.69 53.5 229.83 53.5C230.07 53.5 230.69 53.98 231.69 54.94C232.69 55.88 233.19 56.44 233.19 56.62C233.19 56.8 232.99 56.89 232.59 56.89H220.86ZM256.29 50.77V41.98H240.12C239.82 41.98 239.51 42.06 239.19 42.22L238.53 40.9C238.93 40.94 239.36 40.96 239.82 40.96H255.96L256.8 39.67C256.92 39.49 257.06 39.4 257.22 39.4C257.4 39.4 257.8 39.6 258.42 40C259.04 40.4 259.56 40.73 259.98 40.99C260.42 41.23 260.64 41.46 260.64 41.68C260.64 41.88 260.16 42.24 259.2 42.76V56.71C259.2 58.47 259.11 59.75 258.93 60.55C258.75 61.35 258.43 62.02 257.97 62.56C257.53 63.1 256.77 63.65 255.69 64.21C254.63 64.77 254 65.05 253.8 65.05C253.6 65.05 253.44 64.9 253.32 64.6C253.06 63.94 252.8 63.45 252.54 63.13C252.28 62.83 251.86 62.56 251.28 62.32C250.72 62.08 249.77 61.76 248.43 61.36L248.46 60.52C250.58 60.84 252.12 61 253.08 61C254.04 61 254.75 60.85 255.21 60.55C255.67 60.23 255.96 59.75 256.08 59.11C256.22 58.45 256.29 57.44 256.29 56.08V51.79L246.03 56.38C243.77 57.4 242.17 58.4 241.23 59.38C241.09 59.52 240.98 59.59 240.9 59.59C240.68 59.59 239.88 58.38 238.5 55.96C244.12 54.44 250.05 52.71 256.29 50.77ZM242.4 44.53C245.18 45.15 247.05 45.82 248.01 46.54C248.97 47.24 249.45 48.03 249.45 48.91C249.45 49.43 249.27 49.99 248.91 50.59C248.57 51.17 248.18 51.46 247.74 51.46C247.48 51.46 247.24 51.25 247.02 50.83C245.88 48.53 244.3 46.61 242.28 45.07L242.4 44.53ZM277.35 42.58H267.39C266.89 42.58 266.46 42.63 266.1 42.73L265.53 41.44C265.95 41.54 266.45 41.59 267.03 41.59H286.17L287.79 39.22C287.97 38.96 288.11 38.83 288.21 38.83C288.33 38.83 288.62 38.99 289.08 39.31C289.56 39.63 290 39.97 290.4 40.33C290.8 40.67 291.13 41.01 291.39 41.35C291.67 41.67 291.81 41.91 291.81 42.07C291.81 42.41 291.61 42.58 291.21 42.58H280.83C280.09 44.04 279.43 45.23 278.85 46.15C279.31 46.47 279.73 46.71 280.11 46.87C280.51 47.03 280.71 47.24 280.71 47.5C280.71 47.76 280.42 48.01 279.84 48.25V60.88C279.84 61.82 279.85 62.49 279.87 62.89L279.9 63.97C279.9 64.33 279.55 64.66 278.85 64.96C278.17 65.26 277.7 65.41 277.44 65.41C277.28 65.41 277.2 65.29 277.2 65.05L277.26 63.37C277.28 62.69 277.29 61.92 277.29 61.06V48.61C274.31 52.99 270.36 56.53 265.44 59.23L265.14 58.72C267.94 56.52 270.44 53.96 272.64 51.04C274.86 48.1 276.43 45.28 277.35 42.58ZM281.7 48.85C284.52 50.05 286.58 51.03 287.88 51.79C289.18 52.53 290.01 53.18 290.37 53.74C290.75 54.3 290.94 54.99 290.94 55.81C290.94 56.61 290.8 57.28 290.52 57.82C290.24 58.34 289.93 58.6 289.59 58.6C289.25 58.6 288.99 58.51 288.81 58.33C288.65 58.13 288.4 57.67 288.06 56.95C286.74 54.05 284.51 51.53 281.37 49.39L281.7 48.85ZM298.26 49.03C297.1 50.65 295.91 52.07 294.69 53.29L294.3 52.9C295.92 50.32 297.2 47.92 298.14 45.7C299.1 43.48 299.92 40.93 300.6 38.05C302.64 38.95 303.77 39.47 303.99 39.61C304.21 39.73 304.32 39.87 304.32 40.03C304.32 40.23 304.14 40.37 303.78 40.45C303.44 40.53 303.19 40.65 303.03 40.81C302.87 40.95 302.54 41.58 302.04 42.7C301.54 43.82 300.89 45.02 300.09 46.3C300.89 46.52 301.29 46.72 301.29 46.9C301.29 47.08 301.09 47.27 300.69 47.47V64.72C300.69 64.9 300.64 65.04 300.54 65.14C300.46 65.24 300.12 65.4 299.52 65.62C298.94 65.86 298.53 65.98 298.29 65.98C298.19 65.98 298.14 65.87 298.14 65.65L298.23 62.83C298.25 61.95 298.26 61.12 298.26 60.34V49.03ZM310.86 42.28C310.54 40.82 309.86 39.57 308.82 38.53L308.97 38.17C310.55 38.43 311.74 38.78 312.54 39.22C313.34 39.66 313.74 40.16 313.74 40.72C313.74 41.26 313.34 41.78 312.54 42.28H318.03L319.05 40.66C319.19 40.42 319.33 40.3 319.47 40.3C319.63 40.3 320.18 40.69 321.12 41.47C322.06 42.25 322.53 42.74 322.53 42.94C322.53 43.12 322.35 43.21 321.99 43.21H304.2C303.74 43.21 303.36 43.28 303.06 43.42L302.58 42.16C302.98 42.24 303.43 42.28 303.93 42.28H310.86ZM308.64 45.13H315.09L315.6 44.35C315.7 44.19 315.82 44.11 315.96 44.11C316.12 44.11 316.44 44.25 316.92 44.53C317.4 44.81 317.83 45.06 318.21 45.28C318.61 45.5 318.81 45.69 318.81 45.85C318.81 46.01 318.41 46.28 317.61 46.66V48.67C317.61 49.05 317.62 49.38 317.64 49.66L317.7 50.35C317.7 50.45 317.63 50.55 317.49 50.65C317.37 50.73 317.08 50.83 316.62 50.95C316.16 51.07 315.75 51.13 315.39 51.13C315.25 51.13 315.18 51.04 315.18 50.86V49.63H308.1C308.1 50.03 308.05 50.29 307.95 50.41C307.85 50.53 307.53 50.67 306.99 50.83C306.47 50.99 306.08 51.07 305.82 51.07C305.74 51.07 305.7 51 305.7 50.86L305.73 49.9C305.75 49.62 305.76 49.32 305.76 49V46.3C305.76 45.56 305.73 44.8 305.67 44.02C306.85 44.34 307.84 44.71 308.64 45.13ZM315.18 48.73V46.03H308.1V48.73H315.18ZM304.59 51.82H319.05L319.59 51.01C319.69 50.85 319.82 50.77 319.98 50.77C320.14 50.77 320.54 51.02 321.18 51.52C321.82 52 322.28 52.36 322.56 52.6C322.86 52.82 323.01 53.02 323.01 53.2C323.01 53.46 322.81 53.6 322.41 53.62C321.41 53.66 320.69 53.75 320.25 53.89C319.83 54.03 319.39 54.33 318.93 54.79C319.61 55.29 320.04 55.63 320.22 55.81C320.42 55.99 320.52 56.16 320.52 56.32C320.52 56.46 320.28 56.53 319.8 56.53H313.53V62.83C313.53 63.57 313.42 64.12 313.2 64.48C313 64.86 312.48 65.25 311.64 65.65C310.8 66.05 310.24 66.25 309.96 66.25C309.8 66.25 309.68 66.07 309.6 65.71C309.44 65.07 309.15 64.59 308.73 64.27C308.31 63.97 307.4 63.6 306 63.16V62.59C307.84 62.85 309.04 62.98 309.6 62.98C310.18 62.98 310.53 62.91 310.65 62.77C310.79 62.63 310.86 62.38 310.86 62.02V56.53H306.45C306.01 56.53 305.63 56.59 305.31 56.71L304.83 55.39C305.23 55.47 305.68 55.51 306.18 55.51H316.32L317.16 54.25C317.28 54.05 317.42 53.95 317.58 53.95C317.76 53.95 318 54.09 318.3 54.37C318.56 53.75 318.76 53.19 318.9 52.69H304.71C304.75 52.99 304.77 53.27 304.77 53.53C304.77 54.41 304.56 55.11 304.14 55.63C303.74 56.15 303.31 56.41 302.85 56.41C302.39 56.41 302.03 56.3 301.77 56.08C301.51 55.86 301.38 55.65 301.38 55.45C301.38 55.25 301.63 54.84 302.13 54.22C302.65 53.6 303.02 53.04 303.24 52.54C303.46 52.02 303.61 51.3 303.69 50.38H304.32C304.44 50.92 304.53 51.4 304.59 51.82Z" fill="white"/>
<path opacity="0.5" d="M31.0769 21.4423L21.9831 27.9519C21.5451 28.2988 21.2923 28.6106 21.2248 28.8873C21.1761 29.1364 21.5048 29.5419 22.211 30.1038L24.8388 32.1966L24.1631 33.1883C23.9064 32.9731 23.3511 32.5746 22.4971 31.9927C21.6895 31.4021 20.5694 30.6188 19.1369 29.6429C17.7045 28.6669 16.5519 27.9018 15.6792 27.3475C14.8527 26.7844 14.2924 26.4228 13.9982 26.2627L14.6739 25.271L17.4178 26.838C18.3832 27.3748 19.364 27.2968 20.3602 26.6042L46.6432 8.45217L48.3374 9.60644L40.8872 40.1662C40.7609 40.7659 40.7241 41.2047 40.7768 41.4826C40.8295 41.7605 41.0293 42.1184 41.3762 42.5565L43.1702 44.8073L42.5227 45.7577C42.0181 45.3736 41.3206 44.858 40.4303 44.2111C39.5676 43.583 38.6128 42.9123 37.566 42.1991L34.6323 40.2002C32.8141 38.9615 31.2571 37.9612 29.9612 37.1992L30.6087 36.2488L33.5761 37.6656C33.9993 37.8732 34.3398 38.0246 34.5978 38.1197C34.8744 38.1872 35.0779 38.1846 35.208 38.1119C35.3845 38.0305 35.5153 37.8978 35.6004 37.7137C35.7042 37.5021 35.7949 37.221 35.8724 36.8705L38.4734 26.4817L31.0769 21.4423ZM38.9084 24.6L41.9862 13.689L32.6689 20.3489L38.9084 24.6Z" fill="white"/>
<path opacity="0.6" d="M107.789 109.808C105.723 108.4 104.024 106.779 102.693 104.944C101.38 103.082 100.47 101.131 99.964 99.0919C99.4576 97.0528 99.3768 94.981 99.7216 92.8765C100.113 90.7632 100.975 88.7287 102.307 86.7728C103.658 84.7894 105.269 83.2247 107.139 82.0786C109.055 80.9237 111.087 80.1907 113.235 79.8795C115.384 79.5683 117.578 79.6922 119.819 80.251C122.106 80.801 124.311 81.7987 126.432 83.2438C128.415 84.5952 130.026 86.197 131.265 88.0494C132.55 89.8929 133.413 91.8524 133.855 93.9279C134.296 96.0033 134.312 98.1114 133.902 100.252C133.519 102.412 132.671 104.456 131.358 106.384C130.044 108.312 128.475 109.845 126.651 110.982C124.855 112.139 122.92 112.877 120.846 113.198C118.772 113.52 116.614 113.401 114.373 112.842C112.16 112.302 109.965 111.29 107.789 109.808ZM107.249 90.4422C106.235 91.9298 105.47 93.5261 104.954 95.2314C104.465 96.9553 104.258 98.6498 104.334 100.315C104.41 101.98 104.801 103.537 105.507 104.986C106.214 106.436 107.283 107.648 108.716 108.624C111.746 110.689 114.759 111.269 117.754 110.366C120.75 109.462 123.561 107.082 126.189 103.225C127.39 101.462 128.286 99.6733 128.878 97.8579C129.497 96.0612 129.782 94.3398 129.734 92.6937C129.705 91.0199 129.314 89.4627 128.561 88.0221C127.808 86.5815 126.674 85.345 125.159 84.3127C123.589 83.2429 121.977 82.6488 120.323 82.5305C118.697 82.4309 117.09 82.6874 115.503 83.3001C113.962 83.904 112.483 84.8321 111.065 86.0845C109.647 87.3368 108.375 88.7894 107.249 90.4422Z" fill="white"/>
<path opacity="0.5" d="M331.485 6.69255L329 20.7299L346.329 8.88082C347.949 7.80618 348.961 6.94268 349.365 6.29033C349.815 5.6292 349.743 4.99515 349.148 4.3882L347.679 2.90336L348.271 2.03563C348.49 2.30595 349.508 3.06048 351.327 4.29921C352.263 4.93735 353.062 5.48164 353.723 5.93209C354.403 6.35499 354.872 6.61397 355.13 6.70902L354.539 7.57676L353.046 7.10406C352.539 6.96026 352.081 6.95103 351.673 7.07635C351.284 7.17413 350.782 7.43719 350.167 7.86553L325.013 25.5158L323.649 24.5868L326.337 9.71939L312.988 17.3233L311.873 16.5632L318.214 -12.6348C318.36 -13.3823 318.449 -13.9869 318.481 -14.4489C318.56 -14.9196 318.573 -15.2939 318.521 -15.5718C318.514 -15.8585 318.457 -16.0994 318.348 -16.2947C318.266 -16.4712 318.157 -16.6664 318.021 -16.8805L317.309 -17.7891L317.9 -18.6568C318.532 -18.105 319.785 -17.1909 321.658 -15.9146C323.559 -14.6196 325.033 -13.6756 326.081 -13.0825L325.49 -12.2148L324.053 -12.7701C323.796 -12.8652 323.601 -12.8163 323.47 -12.6235C323.338 -12.4306 323.21 -12.0945 323.085 -11.615C322.987 -11.1167 322.827 -10.3787 322.605 -9.40088L317.522 13.3333L326.464 8.11196L328.811 -4.56766C329.104 -6.18266 329.236 -7.32315 329.206 -7.98913C329.194 -8.68265 329.038 -9.19273 328.736 -9.51937L327.474 -10.8634L328.065 -11.7312C328.78 -11.123 330.363 -9.98373 332.815 -8.31332C335.239 -6.66168 336.796 -5.66134 337.486 -5.3123L336.895 -4.44456L335.017 -5.24011C334.575 -5.42023 334.223 -5.37755 333.961 -5.11207C333.868 -4.97433 333.744 -4.6751 333.592 -4.21436C333.458 -3.78117 333.299 -3.10324 333.114 -2.18056L331.653 5.11327L339.3 0.461295C339.821 0.17069 340.139 -0.237524 340.255 -0.763345C340.399 -1.2704 340.283 -1.69223 339.907 -2.02886L338.671 -3.23398L339.263 -4.10172C339.895 -3.54986 341.162 -2.62642 343.062 -1.33138C344.936 -0.0551124 346.176 0.729388 346.783 1.02212L346.192 1.88986L343.996 0.938554C342.928 0.493252 341.781 0.638853 340.553 1.37536L331.485 6.69255Z" fill="white"/>
<path opacity="0.3" d="M155.001 11.8081L154.769 11.3652L155.786 10.7646C156.865 10.1242 157.742 9.61274 158.414 9.23037C159.081 8.8362 159.509 8.58963 159.698 8.49067C160.265 8.19378 160.827 7.9596 161.384 7.78813C161.941 7.61667 162.462 7.53237 162.945 7.53525C163.44 7.53194 163.886 7.6369 164.284 7.85011C164.681 8.06333 165.004 8.40617 165.251 8.87865C165.523 9.39838 165.564 9.96419 165.373 10.5761C165.187 11.17 164.816 11.7405 164.259 12.2877C164.781 12.1348 165.272 12.0362 165.73 11.9918C166.2 11.9412 166.636 11.9688 167.038 12.0746C167.439 12.1804 167.801 12.3675 168.122 12.6358C168.448 12.8861 168.732 13.2416 168.974 13.7023C169.233 14.1984 169.342 14.7212 169.298 15.2707C169.255 15.8202 169.089 16.366 168.801 16.9081C168.507 17.4385 168.102 17.944 167.586 18.4249C167.082 18.8995 166.49 19.3072 165.811 19.6479C165.173 19.9819 164.541 20.3128 163.915 20.6406C163.283 20.9566 162.648 21.2816 162.01 21.6156L160.646 22.33L160.414 21.8871L161.277 21.1642C161.47 20.9876 161.583 20.8155 161.616 20.6479C161.649 20.4803 161.575 20.2252 161.396 19.8827L157.063 11.6084C157.014 11.5139 156.968 11.4403 156.925 11.3874C156.888 11.3165 156.83 11.2788 156.753 11.2743C156.681 11.2518 156.586 11.2566 156.467 11.2886C156.342 11.3088 156.173 11.3597 155.96 11.4412L155.001 11.8081ZM160.805 14.0969C160.911 14.071 161.074 14.0083 161.293 13.9088C161.517 13.7913 161.825 13.6305 162.214 13.4264C162.923 13.0552 163.37 12.5578 163.555 11.9341C163.74 11.3104 163.641 10.6324 163.258 9.90004C162.917 9.25039 162.442 8.87462 161.832 8.77273C161.227 8.65285 160.583 8.77228 159.897 9.13102C159.437 9.37224 159.022 9.65734 158.652 9.98632L160.805 14.0969ZM161.166 14.7879L163.152 18.5795C163.387 19.0283 163.728 19.2784 164.177 19.3296C164.625 19.3809 165.168 19.2395 165.806 18.9055C166.16 18.7199 166.457 18.4818 166.696 18.191C166.935 17.9003 167.111 17.5899 167.224 17.2597C167.331 16.9178 167.363 16.5623 167.321 16.1934C167.29 15.8182 167.181 15.4535 166.996 15.0991C166.05 13.2919 164.543 12.9295 162.476 14.0119C162.275 14.117 162.06 14.2374 161.83 14.3729C161.611 14.5022 161.39 14.6405 161.166 14.7879Z" fill="white"/>
<path opacity="0.3" d="M351.856 89.2279C351.431 89.4208 350.978 89.635 350.5 89.8706C350.021 90.1062 349.54 90.3508 349.055 90.6044C348.571 90.858 348.113 91.1051 347.683 91.3457C347.252 91.5864 346.907 91.7897 346.647 91.9556L346.388 91.4595L347.421 90.7602C347.61 90.6314 347.712 90.5103 347.727 90.3966C347.749 90.265 347.701 90.087 347.583 89.8626L343.093 81.2871C342.957 81.0273 342.828 80.8537 342.707 80.7666C342.592 80.6614 342.434 80.6464 342.232 80.7218L341.157 81.1266L340.935 80.7014C341.213 80.5709 341.939 80.2054 343.115 79.6049C344.284 78.9926 345.855 78.1699 347.828 77.137C348.359 76.8587 348.814 76.6206 349.192 76.4226C349.564 76.2129 349.877 76.0341 350.13 75.8862C350.199 76.0459 350.302 76.2706 350.438 76.5603C350.587 76.8438 350.732 77.1214 350.874 77.3931C351.017 77.6647 351.143 77.9069 351.255 78.1195C351.366 78.3321 351.468 78.5121 351.56 78.6595L351.223 78.8357C350.865 78.4667 350.564 78.1801 350.322 77.9759C350.085 77.7538 349.876 77.5996 349.696 77.5135C349.527 77.4213 349.365 77.3855 349.211 77.4063C349.056 77.4271 348.884 77.487 348.695 77.586L345.24 79.3951C345.039 79.5003 344.934 79.6305 344.925 79.7857C344.91 79.9291 344.974 80.1367 345.116 80.4083L347.009 84.0228L350.357 82.2693C350.57 82.1579 350.696 82.0542 350.736 81.958C350.782 81.8439 350.769 81.6622 350.699 81.413L350.38 80.1129L350.752 79.9181C350.857 80.1487 350.982 80.4147 351.124 80.7162C351.273 80.9997 351.446 81.3304 351.644 81.7084C352.034 82.4526 352.426 83.1579 352.82 83.8245L352.483 84.0007L351.508 83.0439C351.307 82.833 351.138 82.7407 351.002 82.7671C350.859 82.7817 350.61 82.8818 350.256 83.0674L347.315 84.6075L349.523 88.8243C349.609 88.9897 349.686 89.1075 349.753 89.1778C349.814 89.2363 349.88 89.2768 349.952 89.2994C350.03 89.3039 350.113 89.2904 350.202 89.2589C350.291 89.2274 350.403 89.1836 350.539 89.1273L351.597 88.7318L351.856 89.2279Z" fill="white"/>
<path opacity="0.3" d="M197.817 90.586C197.564 90.615 197.228 90.6695 196.808 90.7493C196.389 90.8291 195.88 90.9357 195.281 91.0691C194.683 91.2025 194.157 91.3264 193.704 91.441C193.252 91.5555 192.905 91.6533 192.663 91.7344L192.554 91.2464L193.569 90.8358C193.746 90.7692 193.858 90.6896 193.906 90.597C193.963 90.4885 193.966 90.3171 193.914 90.0828L191.721 80.2442C191.672 80.0229 191.609 79.8935 191.532 79.856C191.466 79.8025 191.324 79.7795 191.107 79.7868L190.014 79.8461L189.914 79.3971C189.956 79.4014 190.063 79.3912 190.235 79.3665C190.417 79.3259 190.633 79.2846 190.883 79.2425C191.144 79.1845 191.411 79.125 191.684 79.0641C191.97 79.0003 192.237 78.9408 192.484 78.8857C192.653 78.848 192.855 78.8031 193.089 78.7509C193.324 78.6987 193.564 78.645 193.812 78.5899C194.056 78.5218 194.289 78.4631 194.51 78.4138C194.741 78.3486 194.927 78.2935 195.067 78.2486L195.168 78.6976L194.192 79.0995C194.002 79.169 193.882 79.2436 193.832 79.3231C193.781 79.4027 193.78 79.5531 193.83 79.7744L196.022 89.613C196.069 89.8212 196.135 89.9637 196.22 90.0402C196.315 90.1009 196.457 90.124 196.645 90.1094L197.708 90.0979L197.817 90.586ZM206.738 88.5979C206.381 88.6502 205.96 88.7234 205.476 88.8177C204.991 88.912 204.437 89.0288 203.812 89.168C203.5 89.2376 203.174 89.3101 202.836 89.3855C202.511 89.458 202.187 89.537 201.864 89.6225C201.552 89.6921 201.26 89.7639 200.99 89.8378C200.72 89.9117 200.501 89.9741 200.335 90.0248L200.231 89.5563L201.564 89.0131C201.764 88.9277 201.847 88.8409 201.814 88.7527C201.78 88.6645 201.631 88.5474 201.367 88.4015L196.658 85.8446C196.303 85.664 195.968 85.5066 195.651 85.3722C195.344 85.222 195.063 85.0935 194.807 84.9866C195.074 84.7768 195.373 84.4917 195.702 84.1314C196.032 83.7711 196.321 83.413 196.569 83.057L199.172 79.3829C199.441 78.9951 199.626 78.7217 199.727 78.5625C199.841 78.4005 199.885 78.2609 199.859 78.1438C199.833 78.0266 199.726 77.9754 199.538 77.9899L198.226 78.0775L198.113 77.57C198.486 77.5278 199.284 77.3704 200.507 77.0978C201.718 76.8281 202.507 76.6316 202.876 76.5085L202.989 77.016C202.695 77.1088 202.427 77.2232 202.184 77.3593C201.955 77.4925 201.711 77.656 201.454 77.85C201.196 78.0439 200.917 78.2907 200.615 78.5902C200.325 78.8868 200.025 79.2544 199.713 79.6927L196.977 83.6013L203.346 87.0792C203.765 87.3002 204.105 87.4772 204.366 87.6101C204.641 87.7401 204.839 87.8325 204.961 87.8874C205.098 87.9524 205.234 88.0109 205.369 88.0629C205.513 88.099 205.654 88.1155 205.79 88.1125L206.625 88.0903L206.738 88.5979Z" fill="white"/>
</g>
<defs>
<clipPath id="clip0_275_430">
<rect width="378" height="100" rx="28" fill="white"/>
</clipPath>
</defs>
</svg>
