<svg width="100" height="84" viewBox="0 0 100 84" fill="none" xmlns="http://www.w3.org/2000/svg">
<rect width="100" height="84" rx="28" fill="white"/>
<path d="M40.0469 44.1523H62.8789C64.0117 44.1523 64.9297 43.2383 64.9297 42.1133V42C64.9297 40.875 64.0117 39.9609 62.8789 39.9609H39.9961L46.8359 33.0977C47.625 32.3047 47.625 31.0273 46.8359 30.2344L46.8203 30.2187C46.0313 29.4258 44.7461 29.418 43.9453 30.1992L43.9258 30.2187L32.8047 41.3789C32.6152 41.5693 32.5088 41.827 32.5088 42.0957C32.5088 42.3644 32.6152 42.6221 32.8047 42.8125L34.9805 44.9961L43.75 53.7891C44.5469 54.5898 45.8477 54.5937 46.6524 53.8047L46.668 53.7891L46.7344 53.7227C47.5274 52.9297 47.5274 51.6484 46.7344 50.8555L40.0469 44.1523Z" fill="black"/>
</svg>
