<svg width="20" height="20" viewBox="0 0 20 20" fill="none" xmlns="http://www.w3.org/2000/svg">
<path d="M11.0762 14.9766L11.0762 3.56054C11.0762 2.99414 10.6192 2.53515 10.0567 2.53515L10 2.53515C9.43752 2.53515 8.98049 2.99414 8.98049 3.56054L8.98049 15.0019L5.54885 11.582C5.15237 11.1875 4.51369 11.1875 4.11721 11.582L4.1094 11.5898C3.71291 11.9844 3.70901 12.6269 4.09963 13.0273L4.1094 13.0371L9.68948 18.5977C9.78469 18.6924 9.91355 18.7456 10.0479 18.7456C10.1822 18.7456 10.3111 18.6924 10.4063 18.5977L11.4981 17.5098L15.8946 13.125C16.2949 12.7266 16.2969 12.0762 15.9024 11.6738L15.8946 11.666L15.8613 11.6328C15.4649 11.2363 14.8242 11.2363 14.4278 11.6328L11.0762 14.9766Z" fill="black"/>
</svg>
