<svg width="20" height="20" viewBox="0 0 20 20" fill="none" xmlns="http://www.w3.org/2000/svg">
<path d="M8.92381 5.02344L8.92381 16.4395C8.92381 17.0059 9.38084 17.4648 9.94334 17.4648L9.99998 17.4648C10.5625 17.4648 11.0195 17.0059 11.0195 16.4395L11.0195 4.99805L14.4511 8.41797C14.8476 8.8125 15.4863 8.8125 15.8828 8.41797L15.8906 8.41016C16.2871 8.01563 16.291 7.37305 15.9004 6.97266L15.8906 6.96289L10.3105 1.40235C10.2153 1.30759 10.0865 1.25439 9.95213 1.25439C9.8178 1.25439 9.68894 1.30759 9.59373 1.40235L8.50193 2.49024L4.10545 6.875C3.70506 7.27344 3.7031 7.92383 4.09763 8.32617L4.10545 8.33399L4.13865 8.36719C4.53513 8.76367 5.17576 8.76367 5.57224 8.36719L8.92381 5.02344Z" fill="black"/>
</svg>
