<svg width="20" height="20" viewBox="0 0 20 20" fill="none" xmlns="http://www.w3.org/2000/svg">
<path d="M14.9766 8.92381L3.56054 8.92381C2.99414 8.92381 2.53515 9.38084 2.53515 9.94334L2.53515 9.99998C2.53515 10.5625 2.99414 11.0195 3.56054 11.0195L15.0019 11.0195L11.582 14.4512C11.1875 14.8476 11.1875 15.4863 11.582 15.8828L11.5898 15.8906C11.9844 16.2871 12.6269 16.291 13.0273 15.9004L13.0371 15.8906L18.5977 10.3105C18.6924 10.2153 18.7456 10.0865 18.7456 9.95213C18.7456 9.8178 18.6924 9.68894 18.5977 9.59373L17.5098 8.50193L13.125 4.10545C12.7266 3.70506 12.0762 3.7031 11.6738 4.09763L11.666 4.10545L11.6328 4.13865C11.2363 4.53514 11.2363 5.17576 11.6328 5.57224L14.9766 8.92381Z" fill="black"/>
</svg>
