<svg width="20" height="20" viewBox="0 0 20 20" fill="none" xmlns="http://www.w3.org/2000/svg">
<path d="M5.02344 11.0762L16.4395 11.0762C17.0059 11.0762 17.4648 10.6192 17.4648 10.0567V10C17.4648 9.43752 17.0059 8.98049 16.4395 8.98049L4.99805 8.98049L8.41797 5.54885C8.8125 5.15237 8.8125 4.51369 8.41797 4.11721L8.41016 4.1094C8.01563 3.71291 7.37305 3.70901 6.97266 4.09963L6.96289 4.1094L1.40235 9.68948C1.30759 9.78469 1.25439 9.91355 1.25439 10.0479C1.25439 10.1822 1.30759 10.3111 1.40235 10.4063L2.49024 11.4981L6.875 15.8946C7.27344 16.2949 7.92383 16.2969 8.32618 15.9024L8.33399 15.8946L8.36719 15.8613C8.76368 15.4649 8.76368 14.8242 8.36719 14.4278L5.02344 11.0762Z" fill="black"/>
</svg>
